# xmcd
#
# Track frame offsets: 
#        150
#        17577
#        42017
#        60472
#        80505
#        94765
#        117282
#        133767
#        157972
#        178497
#
# Disc length: 2755 seconds
#
# Revision: 0
# Processed by: cddbd v1.5.2PL0 Copyright (c) Steve Scherf et al.
# Submitted via: ExactAudioCopy v0.95a5
#
DISCID=7b0ac10a
DTITLE=J. Blackfoot - Stealing Love
DYEAR=1998
DGENRE=Blues
TTITLE0=You Can Make It
TTITLE1=Better To Have And Not Need
TTITLE2=Be That Way Sometimes
TTITLE3=So Good
TTITLE4=For The Right Reasons
TTITLE5=You' re My Heartbeat
TTITLE6=Your Mouth Wrote A Check
TTITLE7=Stealing Love
TTITLE8=Working On My Weakness
TTITLE9=Jill
EXTD=
EXTT0=
EXTT1=
EXTT2=
EXTT3=
EXTT4=
EXTT5=
EXTT6=
EXTT7=
EXTT8=
EXTT9=
PLAYORDER=
